<?xml version="1.0" standalone="no"?>
<!DOCTYPE svg PUBLIC "-//W3C//DTD SVG 20010904//EN"
 "http://www.w3.org/TR/2001/REC-SVG-20010904/DTD/svg10.dtd">
<svg version="1.0" xmlns="http://www.w3.org/2000/svg"
 width="16.000000pt" height="16.000000pt" viewBox="0 0 16.000000 16.000000"
 preserveAspectRatio="xMidYMid meet">
<metadata>
Created by potrace 1.15, written by Peter Selinger 2001-2017
</metadata>
<g transform="translate(0.000000,16.000000) scale(0.100000,-0.100000)"
fill="#000000" stroke="none">
<path d="M44 136 c-3 -9 -12 -16 -20 -16 -8 0 -14 -7 -14 -15 0 -8 5 -15 10
-15 6 0 10 -4 10 -10 0 -5 -7 -10 -15 -10 -8 0 -15 -7 -15 -15 0 -8 4 -15 10
-15 5 0 7 -7 4 -15 -9 -22 32 -20 45 3 10 16 10 16 11 0 0 -22 36 -24 44 -3 3
8 12 15 21 15 8 0 15 7 15 15 0 8 -4 15 -10 15 -5 0 -10 5 -10 10 0 6 7 10 15
10 8 0 15 7 15 15 0 8 -4 15 -10 15 -5 0 -10 7 -10 15 0 19 -29 19 -36 0 -7
-18 -25 -20 -21 -3 3 18 -32 22 -39 4z"/>
</g>
</svg>
